<?xml version="1.0" encoding="UTF-8"?>
<svg id="Layer_1" xmlns="http://www.w3.org/2000/svg" version="1.1" viewBox="0 0 265 200">
  <!-- Generator: Adobe Illustrator 29.4.0, SVG Export Plug-In . SVG Version: 2.1.0 Build 152)  -->
  <defs>
    <style>
      .st0 {
        fill: #00843d;
      }
    </style>
  </defs>
  <g>
    <path d="M18.7,126.8l4.2-24h6.8l-4.3,24h-6.8Z"/>
    <path d="M29.1,126.8l4.2-24h6.2l2.6,7.9c.1.3.2.7.3,1.1s.2.8.3,1.2c.1.4.2.8.3,1.1h.2c0-.6.2-1.2.3-1.9.1-.7.2-1.3.3-1.8l1.3-7.6h6.4l-4.2,24h-6.2l-2.8-8.2c0-.4-.2-1-.4-1.5-.2-.6-.3-1.1-.4-1.6h-.2c0,.5-.1,1-.2,1.6,0,.6-.2,1.1-.3,1.6l-1.4,8.1h-6.4Z"/>
    <path d="M51,126.8l4.2-24h8.4c2.7,0,4.8.6,6,1.8,1.3,1.2,1.9,3.1,1.9,5.7s0,1.4-.1,2.2c0,.8-.2,1.6-.4,2.6-.5,2.7-1.1,4.9-2,6.6-.9,1.7-2.1,3-3.5,3.9-1.4.9-3.3,1.3-5.5,1.3h-9.1ZM58.8,121.2h1.5c.5,0,1,0,1.4-.3s.7-.5.9-.8c.3-.4.5-.8.6-1.4.2-.6.3-1.2.5-2,.3-1.5.5-2.7.6-3.5.1-.8.2-1.4.3-1.7,0-.4,0-.7,0-.9,0-.5,0-.9-.2-1.2-.1-.3-.4-.6-.7-.8-.3-.2-.7-.3-1.2-.3h-1.5l-2.2,12.9Z"/>
    <path d="M81.2,127.2c-2.5,0-4.5-.5-5.9-1.6-1.4-1-2.1-2.7-2.1-5.1s0-.8,0-1.2c0-.4,0-.9.2-1.3l2.7-15.2h6.9l-2.7,15.6c0,.3,0,.5-.1.8,0,.3,0,.5,0,.7,0,.6.1,1,.4,1.3.3.3.7.5,1.3.5s1.5-.3,1.9-.9c.5-.6.8-1.4.9-2.4l2.8-15.6h6.8l-2.8,15.6c-.4,2.1-1,3.9-1.9,5.2-.9,1.3-2.1,2.3-3.5,2.8-1.4.6-3,.9-4.9.9Z"/>
    <path d="M102,127.2c-1.2,0-2.3,0-3.3-.2-1-.2-1.9-.5-2.6-.9-.7-.4-1.3-1-1.8-1.8s-.6-1.8-.6-3,0-.7,0-1.1c0-.4.1-.9.2-1.3h6.5c0,.4-.2.8-.2,1,0,.2,0,.4,0,.5,0,.4,0,.7.2.9s.4.3.7.4c.3,0,.6.1.9.1s.5,0,.8-.1c.3,0,.5-.2.7-.3.2-.2.4-.4.5-.6.1-.2.2-.6.2-.9s-.1-.7-.3-.9-.5-.5-.9-.7c-.4-.2-.8-.4-1.3-.6-.5-.2-1-.4-1.5-.6-.6-.2-1.1-.5-1.7-.8-.5-.3-1-.7-1.5-1.1-.4-.4-.8-1-1.1-1.6s-.4-1.4-.4-2.3c0-1.7.3-3.1.9-4.2.6-1.1,1.3-2.1,2.3-2.7.9-.7,2-1.2,3.1-1.5,1.1-.3,2.2-.5,3.4-.5s2.1.1,3,.3c.9.2,1.7.5,2.4,1,.7.4,1.2,1,1.6,1.7.4.7.6,1.6.6,2.6s0,.5,0,.8-.1.8-.2,1.4h-6.4c0-.3.1-.6.1-.7,0-.2,0-.3,0-.4,0-.4-.1-.7-.3-.9-.2-.2-.6-.3-1.1-.3s-.8,0-1.1.2c-.3.2-.5.4-.7.6s-.2.6-.2.9,0,.7.3.9c.2.3.4.5.8.7.3.2.7.4,1.1.6s.9.4,1.3.5c.6.2,1.2.5,1.8.7.6.3,1.2.6,1.7,1.1.5.4.9,1,1.3,1.6.3.6.5,1.4.5,2.3,0,1.4-.2,2.7-.7,3.8-.5,1.1-1.1,2.1-2,2.9-.9.8-1.9,1.4-3,1.8-1.2.4-2.5.7-3.9.7Z"/>
    <path d="M117.5,126.8l3.3-18.3h-5.8l1-5.7h18.3l-1,5.7h-5.7l-3.3,18.3h-6.8Z"/>
    <path d="M132.5,126.8l4.2-24h10.6c1.6,0,2.9.3,3.8.8,1,.5,1.6,1.2,2.1,2s.6,1.9.6,3-.1,2.3-.4,3.4c-.3,1.1-.7,2.1-1.3,3-.6.9-1.3,1.6-2.2,2.2l1.6,9.7h-7.3l-.8-8.1h-2.6l-1.4,8.1h-6.9ZM141.7,113.5h2.8c.4,0,.8-.2,1.2-.6s.6-.9.8-1.5c.2-.6.3-1.2.3-1.8s-.1-.9-.3-1.2c-.2-.3-.5-.5-.9-.5h-2.9l-1,5.5Z"/>
    <path d="M158.2,126.8l1.6-9.2-4.4-14.8h7.2l1.7,8h.2l4.5-8h7.1l-9.5,14.8-1.6,9.2h-6.9Z"/>
  </g>
  <g>
    <path d="M10.6,160.7l10.4-24h9l1.5,24h-7v-3.5h-5.6l-1.3,3.5h-7.1ZM20.9,151.9h3.6v-5.4c.1-.3.1-.6.1-1s0-.7,0-1.1c0-.4,0-.7,0-1.1v-1h-.3c-.1.4-.3.8-.5,1.3-.2.5-.4,1-.5,1.5s-.3.9-.5,1.3l-1.9,5.4Z"/>
    <path d="M33.7,160.7l4.2-24h10.5c1.3,0,2.4.2,3.3.7.9.5,1.5,1.2,1.9,2.1.4.9.7,2,.7,3.2s-.2,2.8-.6,4.1c-.4,1.3-.9,2.4-1.7,3.3-.7.9-1.6,1.7-2.6,2.2-1,.5-2.1.8-3.4.8h-4.2l-1.4,7.6h-6.8ZM42.8,147.8h2.2c.5,0,.9-.2,1.2-.6s.6-.9.8-1.6c.2-.7.3-1.3.3-2s-.1-.9-.3-1.1c-.2-.3-.5-.4-1-.4h-2.1l-1,5.7Z"/>
    <path d="M53.4,160.7l4.2-24h10.5c1.3,0,2.4.2,3.3.7.9.5,1.5,1.2,1.9,2.1.4.9.7,2,.7,3.2s-.2,2.8-.6,4.1c-.4,1.3-.9,2.4-1.7,3.3-.7.9-1.6,1.7-2.6,2.2-1,.5-2.1.8-3.4.8h-4.2l-1.4,7.6h-6.8ZM62.6,147.8h2.2c.5,0,.9-.2,1.2-.6.3-.4.6-.9.8-1.6.2-.7.3-1.3.3-2s-.1-.9-.3-1.1c-.2-.3-.5-.4-1-.4h-2.1l-1,5.7Z"/>
    <path d="M73.2,160.7l4.2-24h6.9l-3.3,18.3h8.7l-1,5.7h-15.5Z"/>
    <path d="M91.1,160.7l4.2-24h6.8l-4.3,24h-6.8Z"/>
    <path d="M111,161.1c-2.8,0-5-.7-6.3-2-1.4-1.4-2.1-3.4-2.1-6.1s0-1.4.1-2.1c0-.7.2-1.5.3-2.3.5-2.9,1.3-5.3,2.3-7.1,1-1.8,2.3-3.1,3.8-4,1.5-.8,3.4-1.3,5.5-1.3s3,.2,4.2.7c1.2.5,2.1,1.2,2.7,2.3.6,1,.9,2.4.9,4s0,1,0,1.6c0,.6-.1,1.2-.2,1.8h-6.6c0-.5.2-1,.2-1.4,0-.4,0-.8,0-1.1,0-.5,0-.9-.2-1.2-.1-.3-.4-.6-.6-.8-.3-.2-.7-.3-1.1-.3s-1,.1-1.4.3-.7.5-1,.9c-.3.4-.5.9-.7,1.5-.2.6-.3,1.3-.5,2.1-.2,1.3-.4,2.3-.5,3.1-.1.8-.2,1.4-.3,1.8s-.1.8-.1,1c0,.2,0,.4,0,.6,0,.5,0,.9.2,1.3.1.4.4.6.7.8.3.2.7.3,1.2.3s1.2-.2,1.7-.5c.4-.3.8-.9,1.1-1.6.3-.7.5-1.5.7-2.5h6.4c-.4,2.4-1,4.3-1.9,5.8-.9,1.5-2,2.6-3.4,3.3-1.4.7-3.1,1.1-5,1.1Z"/>
    <path d="M120.6,160.7l10.4-24h9l1.5,24h-7v-3.5h-5.6l-1.3,3.5h-7.1ZM131,151.9h3.6v-5.4c.1-.3.1-.6.1-1s0-.7,0-1.1c0-.4,0-.7,0-1.1v-1h-.3c-.1.4-.3.8-.5,1.3-.2.5-.4,1-.5,1.5-.2.5-.3.9-.5,1.3l-1.9,5.4Z"/>
    <path d="M145.9,160.7l3.3-18.3h-5.8l1-5.7h18.3l-1,5.7h-5.7l-3.3,18.3h-6.8Z"/>
    <path d="M160.9,160.7l4.2-24h6.9l-4.3,24h-6.8Z"/>
    <path d="M181.2,161.1c-1.9,0-3.5-.3-4.8-.9-1.3-.6-2.3-1.6-2.9-2.8-.7-1.2-1-2.8-1-4.6s0-1.3.1-2.1c0-.7.2-1.5.3-2.3.5-2.8,1.2-5.2,2.3-7,1-1.8,2.3-3.1,3.9-4,1.6-.8,3.5-1.3,5.8-1.3s3.5.3,4.8.9c1.3.6,2.3,1.6,2.9,2.8.7,1.2,1,2.8,1,4.6s0,1.3-.1,2c0,.7-.2,1.5-.3,2.3-.5,2.8-1.2,5.2-2.3,7-1,1.8-2.3,3.1-3.9,4-1.6.9-3.5,1.3-5.7,1.3ZM181.7,155.5c.6,0,1.1-.1,1.6-.3.4-.2.8-.5,1.1-1,.3-.4.6-.9.8-1.5.2-.6.4-1.3.5-2,.2-1.2.4-2.2.5-2.9.1-.7.2-1.3.3-1.7s.1-.7.1-1,0-.4,0-.5c0-.6,0-1-.3-1.4-.2-.4-.5-.7-.8-.9-.4-.2-.8-.3-1.4-.3s-1.1.1-1.6.3c-.4.2-.8.5-1.1,1-.3.4-.6.9-.8,1.5-.2.6-.4,1.3-.5,2-.2,1.2-.4,2.2-.5,3-.1.8-.2,1.3-.3,1.8,0,.4,0,.7-.1.9s0,.4,0,.6c0,.5,0,1,.3,1.4.2.4.4.7.8.9.4.2.9.3,1.4.3Z"/>
    <path d="M194,160.7l4.2-24h6.2l2.6,7.9c.1.3.2.7.3,1.1s.2.8.3,1.2c.1.4.2.8.3,1.1h.2c0-.6.2-1.2.3-1.9.1-.7.2-1.3.3-1.8l1.3-7.6h6.4l-4.2,24h-6.2l-2.8-8.2c0-.4-.2-1-.4-1.5-.2-.6-.3-1.1-.4-1.6h-.2c0,.5-.1,1-.2,1.6,0,.6-.2,1.1-.3,1.6l-1.4,8.1h-6.4Z"/>
    <path d="M224.4,161.1c-1.2,0-2.3,0-3.3-.2-1-.2-1.9-.5-2.6-.9-.7-.4-1.3-1-1.8-1.8s-.6-1.8-.6-3,0-.7,0-1.1c0-.4.1-.9.2-1.3h6.5c0,.4-.2.8-.2,1,0,.2,0,.4,0,.5,0,.4,0,.7.2.9s.4.4.7.4c.3,0,.6.1.9.1s.5,0,.8-.1c.3,0,.5-.2.7-.3.2-.2.4-.4.5-.6.1-.2.2-.6.2-.9s-.1-.7-.3-.9c-.2-.3-.5-.5-.9-.7-.4-.2-.8-.4-1.3-.6-.5-.2-1-.4-1.5-.6-.6-.2-1.1-.5-1.7-.8-.5-.3-1-.7-1.5-1.1-.4-.4-.8-1-1.1-1.6s-.4-1.4-.4-2.3c0-1.7.3-3.1.9-4.2.6-1.1,1.3-2.1,2.3-2.7.9-.7,2-1.2,3.1-1.5s2.2-.5,3.4-.5,2.1.1,3,.3c.9.2,1.7.5,2.4,1,.7.4,1.2,1,1.6,1.7.4.7.6,1.6.6,2.6s0,.5,0,.8-.1.8-.2,1.4h-6.4c0-.3.1-.6.1-.7,0-.2,0-.3,0-.4,0-.4-.1-.7-.3-.9-.2-.2-.6-.3-1.1-.3s-.8,0-1.1.2c-.3.2-.5.4-.7.6-.1.3-.2.6-.2.9s0,.7.3.9c.2.3.4.5.8.7.3.2.7.4,1.1.6s.8.4,1.3.5c.6.2,1.2.5,1.8.7.6.3,1.2.6,1.7,1.1s.9,1,1.3,1.6c.3.6.5,1.4.5,2.3,0,1.4-.2,2.7-.7,3.8-.5,1.1-1.1,2.1-2,2.9-.9.8-1.9,1.4-3,1.8-1.2.4-2.5.7-3.9.7Z"/>
  </g>
  <g>
    <path d="M14.5,195c-1.2,0-2.3,0-3.3-.2-1-.2-1.9-.5-2.6-.9-.7-.4-1.3-1-1.8-1.8-.4-.8-.6-1.8-.6-3s0-.7,0-1.1c0-.4.1-.9.2-1.3h6.5c0,.4-.2.8-.2,1,0,.2,0,.4,0,.5,0,.4,0,.7.2.9.2.2.4.3.7.4.3,0,.6.1.9.1s.5,0,.8-.1c.3,0,.5-.2.7-.3s.4-.4.5-.6c.1-.2.2-.6.2-.9s-.1-.7-.3-.9c-.2-.3-.5-.5-.9-.7-.4-.2-.8-.4-1.3-.6-.5-.2-1-.4-1.5-.6-.6-.2-1.1-.5-1.7-.8-.5-.3-1-.7-1.5-1.1-.4-.4-.8-1-1.1-1.6-.3-.6-.4-1.4-.4-2.3,0-1.7.3-3.1.9-4.2.6-1.1,1.3-2.1,2.3-2.7.9-.7,2-1.2,3.1-1.5,1.1-.3,2.2-.5,3.4-.5s2.1.1,3,.3c.9.2,1.7.5,2.4,1s1.2,1,1.6,1.7c.4.7.6,1.6.6,2.6s0,.5,0,.8c0,.3-.1.8-.2,1.4h-6.4c0-.3.1-.6.1-.7,0-.2,0-.3,0-.4,0-.4-.1-.7-.3-.9s-.6-.3-1.1-.3-.8,0-1.1.2c-.3.2-.5.4-.7.6-.1.3-.2.6-.2.9s0,.7.3.9.4.5.8.7c.3.2.7.4,1.1.6s.8.4,1.3.5c.6.2,1.2.5,1.8.7.6.3,1.2.6,1.7,1.1.5.4.9,1,1.3,1.6.3.6.5,1.4.5,2.3,0,1.4-.2,2.7-.7,3.8-.5,1.1-1.1,2.1-2,2.9-.9.8-1.9,1.4-3,1.8-1.2.4-2.5.7-3.9.7Z"/>
    <path d="M35.3,195c-1.9,0-3.5-.3-4.8-.9s-2.3-1.6-2.9-2.8c-.7-1.2-1-2.8-1-4.6s0-1.3.1-2.1c0-.7.2-1.5.3-2.3.5-2.8,1.2-5.2,2.3-7,1-1.8,2.3-3.1,3.9-4,1.6-.8,3.5-1.3,5.8-1.3s3.5.3,4.8.9,2.3,1.6,2.9,2.8c.7,1.2,1,2.8,1,4.6s0,1.3-.1,2c0,.7-.2,1.5-.3,2.3-.5,2.8-1.2,5.2-2.3,7-1,1.8-2.3,3.1-3.9,4-1.6.9-3.5,1.3-5.8,1.3ZM35.9,189.5c.6,0,1.1-.1,1.6-.3s.8-.5,1.1-1c.3-.4.6-.9.8-1.5.2-.6.4-1.3.5-2,.2-1.2.4-2.2.5-2.9.1-.7.2-1.3.3-1.7s.1-.7.1-1c0-.2,0-.4,0-.5,0-.6,0-1-.3-1.4s-.5-.7-.8-.9c-.4-.2-.8-.3-1.4-.3s-1.1.1-1.6.3c-.4.2-.8.5-1.1,1-.3.4-.6.9-.8,1.5s-.4,1.3-.5,2c-.2,1.2-.4,2.2-.5,3-.1.8-.2,1.3-.3,1.8,0,.4,0,.7-.1.9,0,.2,0,.4,0,.6,0,.5,0,1,.3,1.4.2.4.4.7.8.9.4.2.8.3,1.4.3Z"/>
    <path d="M57.6,195c-2.8,0-5-.7-6.3-2-1.4-1.4-2.1-3.4-2.1-6.1s0-1.4.1-2.1c0-.7.2-1.5.3-2.3.5-2.9,1.3-5.3,2.3-7.1,1-1.8,2.3-3.1,3.8-4,1.5-.8,3.4-1.3,5.5-1.3s3,.2,4.2.7c1.2.5,2.1,1.2,2.7,2.3.6,1,.9,2.4.9,4s0,1,0,1.6c0,.6-.1,1.2-.2,1.8h-6.6c0-.5.2-1,.2-1.4s0-.8,0-1.1c0-.5,0-.9-.2-1.2-.1-.3-.4-.6-.6-.8s-.7-.3-1.1-.3-1,.1-1.4.3c-.4.2-.7.5-1,.9-.3.4-.5.9-.7,1.5s-.3,1.3-.5,2.1c-.2,1.3-.4,2.3-.5,3.1-.1.8-.2,1.4-.3,1.8s-.1.8-.1,1c0,.2,0,.4,0,.6,0,.5,0,1,.2,1.3s.4.6.7.8.7.3,1.2.3,1.2-.2,1.7-.5c.4-.3.8-.9,1.1-1.6.3-.7.5-1.5.7-2.5h6.4c-.4,2.4-1,4.3-1.9,5.8-.9,1.5-2,2.6-3.4,3.3-1.4.7-3.1,1.1-5,1.1Z"/>
    <path d="M69.3,194.6l4.2-24h6.8l-4.3,24h-6.8Z"/>
    <path d="M79.7,194.6l4.2-24h16.2l-1,5.6h-9.4l-.6,3.5h7.9l-1,5.5h-7.9l-.7,3.8h9.5l-1,5.6h-16.4Z"/>
    <path d="M103.5,194.6l3.3-18.3h-5.8l1-5.7h18.3l-1,5.7h-5.7l-3.3,18.3h-6.9Z"/>
    <path d="M123.1,194.6l1.6-9.2-4.4-14.8h7.2l1.7,8h.2l4.5-8h7.1l-9.5,14.8-1.6,9.2h-6.9Z"/>
  </g>
  <g>
    <path class="st0" d="M36.7,51.7c-2.1,0-3.6,0-5.7.1l-.2-.2c.3-1.5,4.6-19.2,5.4-24l.2-.2h.9c1.8,0,3.1,0,4.8-.1v.2c-1,4.5-3.6,15.1-5.3,24l-.2.2Z"/>
    <path class="st0" d="M53.8,51.7h-.6c-1.7,0-10.5,0-12.2.1l-.2-.2c.7-2.5,1.1-4.3,1.7-6.9l1.3-5.6c.9-3.8,2.1-10.2,2.4-11.5l.3-.2h8.2c1.4,0,2.9,0,4.3-.1v.2c-.2,1.3-.5,2.4-.9,3.8l-.2.2h-.2c-.8,0-1.6,0-2.4,0h-4.1l-1.3,5.7c3.8,0,6.1-.1,6.6-.2v.2c-.3,1.4-.6,2.3-.9,3.7l-.2.2c-.5,0-2.2,0-3.4,0h-2.9c-.8,3.5-1,4.5-1.4,6.3h3.5c1.3,0,3.3-.1,3.9-.1v.2c-.3,1.5-.6,2.6-1,4.1l-.2.2Z"/>
    <path class="st0" d="M70.2,51.7h-.6c-1.7,0-10.5,0-12.2.1l-.2-.2c.7-2.5,1.1-4.3,1.7-6.9l1.3-5.6c.9-3.8,2.1-10.2,2.4-11.5l.3-.2h8.2c1.4,0,2.9,0,4.3-.1v.2c-.2,1.3-.5,2.4-.9,3.8l-.2.2h-.2c-.8,0-1.6,0-2.4,0h-4.1l-1.3,5.7c3.8,0,6.1-.1,6.6-.2v.2c-.3,1.4-.6,2.3-.9,3.7l-.2.2c-.5,0-2.2,0-3.4,0h-2.9c-.8,3.5-1,4.5-1.4,6.3h3.5c1.3,0,3.3-.1,3.9-.1v.2c-.3,1.5-.6,2.6-1,4.1l-.2.2Z"/>
    <path class="st0" d="M86.7,51.7h-.6c-1.7,0-10.5,0-12.2.1l-.2-.2c.7-2.5,1.1-4.3,1.7-6.9l1.3-5.6c.9-3.8,2.1-10.2,2.4-11.5l.3-.2h8.2c1.4,0,2.9,0,4.3-.1v.2c-.2,1.3-.5,2.4-.9,3.8l-.2.2h-.2c-.8,0-1.6,0-2.4,0h-4.1l-1.3,5.7c3.8,0,6.1-.1,6.6-.2v.2c-.3,1.4-.6,2.3-.9,3.7l-.2.2c-.5,0-2.2,0-3.4,0h-2.9c-.8,3.5-1,4.5-1.4,6.3h3.5c1.3,0,3.3-.1,3.9-.1v.2c-.3,1.5-.6,2.6-1,4.1l-.2.2Z"/>
  </g>
  <path class="st0" d="M258.9,70h-12.3c-2.6-1.6-2.5-1.8-3.2-4.6-.7-3.3-2.5-15.5-4.3-20.4-1.8-4.9-10.6-4.8-12.2,1.6-.6,2.5-2.7,12.1-5.1,23.3h-25c-4.7-25-10-47.8-11.3-53.6-3.5-15.4-25.5-15.3-28.1.4,0,0-7.9,35.3-10.1,38.7-2.2,3.4-2.1,3.9-7.1,4.3h-33.7c0,.1-7.4,31-7.4,31h38.5c10.9-.9,12.3-7.3,13.1-11.2l1.8-7.1h24.8c4.9,25.1,9.9,45.8,9.9,45.8,4.8,16.7,27.6,16.2,32.1-5.7,0,0,5.7-20.9,10-40.2h28.8l.9-2.7ZM152.9,70l10.9-41.5c1-4.7,3.7-3,3.9,0,0,1,4.4,18.4,8.9,41.5h-23.7ZM211.3,110.9c-1.4,3.1-5.4,2.5-6.3-1.4,0,0-3.6-14.7-7.8-36.8h24c-4.1,18.8-9,36.2-9.9,38.2ZM234,51.8c.5-1.1,1.6-1.3,2,.3.3,1.2,3.3,16.2,3.3,16.2,0,0,.1.7.7,1.6h-10.3c2.3-10,4-17.7,4.3-18.2Z"/>
  <path class="st0" d="M28.7,60.6s0-.9.4-1.1h10.2c2,0,2.3.4,1.8,3.1-.6,2.8-5.5,25.4-5.5,25.4,0,.9,1.2,1.4,1.3,1.6,0,.2.3,1-.6,1h-10.4c-1.4,0-1.8-.8-1.7-2.4,0,0,5.8-25.4,5.8-26.1s-.9-1-1-1.3v-.3Z"/>
  <path class="st0" d="M39.2,90.7c-1.6,0-1.4-1.1-1.1-1.6.3-.5,13.5-26.4,13.5-26.9s-.4-.8-.6-1.1c-.3-.4-.6-1.3,0-1.4h12.5c2,0,2.6.4,2.5,3.6,0,0,1.6,24,1.6,24.9s1,.9,1.3,1.4c.3.4.4,1.1-.2,1.3h-9c-2.1,0-2-1-2.1-1.6,0-.6-.3-4.5-.3-4.5,0-.6-.7-.4-.7-.4h-6.7c-.4.2-.5.6-.8,1.2-.3.6-1.5,2.8-1.3,3.3.2.5.6.6.7,1,.1.4.2.4-.2.9h-9.3ZM56.9,68.6l-4.7,9.5h5.4l-.7-9.5Z"/>
  <path class="st0" d="M71.6,90.7c-1.5-.2-1.7-1.5-1.6-2.3s1.3-5.8,1.4-6.2,1-.4,1.2,0c.2.4.1.3.2.4.6.9,4.9.8,8.3.6,2.1-.1,3.3-2.7,1-4.2,0,0-6.4-3.9-7.3-4.6s-1.6-1.9-1.1-3.6c.1-.6,2.1-7.2,2.6-8.4.6-1.5,2.2-2.8,4.5-2.9h14.8c.8,0-.6,5.1-1.3,5.9-.8.9-1.2,1-2.4.9-3.6,0-6.3-.8-6.9,1s1,2.1,1.3,2.3c.7.5,4.6,3.1,5.2,3.6.7.6,3.1,1.5,2.2,6.8-.4,2.6-.9,10.7-9,10.7h-13.2Z"/>
  <g>
    <path class="st0" d="M233.6,83v-4.1h-1.5v-.8h3.9v.8h-1.5v4.1h-1Z"/>
    <path class="st0" d="M236.7,83v-4.9h1.5l.9,3.3.9-3.3h1.5v4.9h-.9v-3.9l-1,3.9h-1l-1-3.9v3.9h-.9Z"/>
  </g>
</svg>