<?xml version="1.0" encoding="UTF-8"?>
<svg id="Layer_1" xmlns="http://www.w3.org/2000/svg" version="1.1" viewBox="0 0 450 125">
  <!-- Generator: Adobe Illustrator 29.4.0, SVG Export Plug-In . SVG Version: 2.1.0 Build 152)  -->
  <defs>
    <style>
      .st0 {
        fill: #00843d;
      }
    </style>
  </defs>
  <g>
    <path d="M199.9,75.3l11.1-25.7h9.6l1.6,25.7h-7.5v-3.7h-6l-1.4,3.7h-7.5ZM210.9,65.9h3.9v-5.7c.1-.3.1-.7.1-1s0-.8,0-1.1c0-.4,0-.8,0-1.1v-1h-.3c-.1.4-.3.9-.5,1.4-.2.5-.4,1-.6,1.5s-.4,1-.5,1.4l-2.1,5.8Z"/>
    <path d="M224.5,75.3l4.5-25.7h11.2c1.4,0,2.6.3,3.5.8.9.5,1.6,1.3,2.1,2.3.5,1,.7,2.1.7,3.4s-.2,3-.6,4.4c-.4,1.3-1,2.5-1.8,3.5-.8,1-1.7,1.8-2.8,2.4-1.1.6-2.3.8-3.6.8h-4.5l-1.5,8.1h-7.3ZM234.2,61.5h2.3c.5,0,1-.2,1.3-.6s.6-1,.8-1.7c.2-.7.3-1.4.3-2.1s-.1-.9-.3-1.2c-.2-.3-.6-.4-1.1-.4h-2.3l-1.1,6.1Z"/>
    <path d="M245.6,75.3l4.5-25.7h11.2c1.4,0,2.6.3,3.5.8.9.5,1.6,1.3,2.1,2.3.5,1,.7,2.1.7,3.4s-.2,3-.6,4.4c-.4,1.3-1,2.5-1.8,3.5-.8,1-1.7,1.8-2.8,2.4-1.1.6-2.3.8-3.6.8h-4.5l-1.5,8.1h-7.3ZM255.3,61.5h2.4c.5,0,1-.2,1.3-.6.4-.4.6-1,.8-1.7.2-.7.3-1.4.3-2.1s-.1-.9-.3-1.2c-.2-.3-.6-.4-1.1-.4h-2.3l-1.1,6.1Z"/>
    <g>
      <path d="M210.9,39.2l4.5-25.7h7.3l-4.5,25.7h-7.3Z"/>
      <path d="M222,39.2l4.5-25.7h6.6l2.8,8.4c.1.3.2.7.4,1.1s.2.8.4,1.2c.1.4.2.8.3,1.2h.2c0-.6.2-1.3.3-2,.1-.7.2-1.4.3-1.9l1.4-8.1h6.8l-4.5,25.7h-6.6l-3-8.8c0-.5-.2-1-.4-1.6-.2-.6-.3-1.2-.4-1.7h-.2c0,.5-.1,1.1-.2,1.8,0,.6-.2,1.2-.3,1.7l-1.5,8.7h-6.8Z"/>
      <path d="M245.4,39.2l4.5-25.7h9c2.9,0,5.1.7,6.5,2,1.4,1.3,2.1,3.3,2.1,6.1s0,1.5-.1,2.3c0,.8-.2,1.8-.4,2.7-.5,2.8-1.2,5.2-2.2,7-.9,1.9-2.2,3.2-3.7,4.1-1.5.9-3.5,1.4-5.8,1.4h-9.7ZM253.7,33.2h1.6c.6,0,1.1,0,1.5-.3s.7-.5,1-.9c.3-.4.5-.9.7-1.5.2-.6.4-1.3.5-2.1.3-1.6.5-2.8.7-3.7.1-.8.2-1.5.3-1.8,0-.4,0-.7,0-1,0-.5,0-1-.2-1.3-.2-.3-.4-.6-.7-.8-.3-.2-.8-.3-1.3-.3h-1.6l-2.4,13.7Z"/>
      <path d="M277.6,39.6c-2.7,0-4.8-.6-6.3-1.7-1.5-1.1-2.3-2.9-2.3-5.4s0-.8,0-1.3c0-.5.1-.9.2-1.4l2.8-16.3h7.3l-2.9,16.7c0,.3,0,.6-.1.9,0,.3,0,.5,0,.7,0,.6.2,1.1.4,1.4.3.3.8.5,1.4.5s1.6-.3,2.1-1c.5-.6.8-1.5,1-2.5l2.9-16.7h7.3l-2.9,16.6c-.4,2.3-1.1,4.1-2.1,5.5-1,1.4-2.2,2.4-3.7,3-1.5.6-3.2,1-5.2,1Z"/>
      <path d="M299.8,39.6c-1.3,0-2.4,0-3.5-.3-1.1-.2-2-.5-2.8-.9-.8-.4-1.4-1.1-1.9-1.9-.5-.8-.7-1.9-.7-3.2s0-.8,0-1.2c0-.4.1-.9.3-1.4h6.9c0,.5-.2.8-.2,1,0,.2,0,.4,0,.6,0,.4,0,.7.3,1s.4.4.7.4c.3,0,.6.1,1,.1s.5,0,.8-.1c.3,0,.5-.2.8-.4.2-.2.4-.4.6-.7.1-.3.2-.6.2-1s-.1-.7-.4-1-.6-.5-1-.7c-.4-.2-.9-.4-1.4-.6-.5-.2-1.1-.4-1.6-.6-.6-.2-1.2-.5-1.8-.8-.6-.3-1.1-.7-1.6-1.2-.5-.5-.9-1-1.1-1.7-.3-.7-.4-1.5-.4-2.4,0-1.8.3-3.3.9-4.5.6-1.2,1.4-2.2,2.4-2.9,1-.7,2.1-1.3,3.3-1.6,1.2-.3,2.4-.5,3.6-.5s2.2.1,3.2.3c1,.2,1.8.6,2.6,1,.7.5,1.3,1.1,1.7,1.8.4.8.6,1.7.6,2.8s0,.5,0,.8-.1.8-.3,1.5h-6.9c0-.3.1-.6.2-.8,0-.2,0-.3,0-.4,0-.4-.1-.7-.3-.9-.2-.2-.6-.3-1.2-.3s-.8,0-1.2.3c-.3.2-.6.4-.7.7s-.2.6-.2,1,0,.7.3,1c.2.3.5.5.8.8.3.2.7.4,1.2.6s.9.4,1.4.6c.6.2,1.3.5,1.9.8.6.3,1.2.7,1.8,1.1.6.5,1,1,1.3,1.7.3.7.5,1.5.5,2.4,0,1.5-.2,2.9-.7,4.1-.5,1.2-1.2,2.2-2.1,3.1-.9.8-2,1.5-3.2,2-1.3.5-2.6.7-4.1.7Z"/>
      <path d="M316.4,39.2l3.5-19.5h-6.2l1.1-6.1h19.5l-1.1,6.1h-6l-3.5,19.5h-7.3Z"/>
      <path d="M332.4,39.2l4.5-25.7h11.3c1.7,0,3,.3,4.1.8,1,.5,1.8,1.3,2.2,2.2.5.9.7,2,.7,3.2s-.2,2.4-.5,3.6c-.3,1.2-.8,2.2-1.4,3.2-.6.9-1.4,1.7-2.4,2.4l1.7,10.4h-7.8l-.8-8.6h-2.7l-1.5,8.6h-7.3ZM342.1,25h2.9c.5,0,.9-.2,1.3-.6.4-.4.7-.9.9-1.6.2-.6.3-1.3.3-1.9s-.1-.9-.3-1.3c-.2-.3-.6-.5-1-.5h-3.1l-1,5.9Z"/>
      <path d="M359.7,39.2l1.7-9.8-4.7-15.8h7.7l1.8,8.6h.2l4.8-8.6h7.6l-10.2,15.8-1.7,9.8h-7.3Z"/>
    </g>
    <path d="M266.7,75.3l4.5-25.7h7.3l-3.5,19.5h9.3l-1.1,6.1h-16.6Z"/>
    <path d="M285.8,75.3l4.5-25.7h7.3l-4.5,25.7h-7.3Z"/>
    <path d="M307.1,75.8c-3,0-5.3-.7-6.8-2.2-1.5-1.4-2.2-3.6-2.2-6.5s0-1.4.1-2.2c0-.8.2-1.6.3-2.5.6-3.1,1.4-5.7,2.5-7.6,1.1-1.9,2.5-3.3,4.1-4.2,1.7-.9,3.6-1.3,5.8-1.3s3.2.3,4.5.8c1.2.5,2.2,1.3,2.9,2.4.7,1.1,1,2.5,1,4.3s0,1.1,0,1.7c0,.6-.1,1.2-.3,1.9h-7c0-.5.2-1,.2-1.5,0-.4,0-.8,0-1.2,0-.5,0-.9-.2-1.3-.2-.3-.4-.6-.7-.8-.3-.2-.7-.3-1.2-.3s-1.1.1-1.5.3c-.4.2-.8.6-1.1,1-.3.4-.5,1-.7,1.6-.2.6-.4,1.4-.5,2.2-.2,1.3-.4,2.4-.6,3.3-.1.8-.2,1.5-.3,1.9,0,.5-.1.8-.1,1.1,0,.2,0,.5,0,.6,0,.5,0,1,.2,1.4.1.4.4.7.7.9.3.2.8.3,1.3.3s1.3-.2,1.8-.6c.5-.4.9-.9,1.2-1.7.3-.7.6-1.6.7-2.7h6.8c-.4,2.5-1.1,4.6-2.1,6.2-1,1.6-2.2,2.8-3.7,3.5-1.5.8-3.3,1.1-5.3,1.1Z"/>
    <path d="M317.3,75.3l11.1-25.7h9.6l1.6,25.7h-7.5v-3.7h-6l-1.4,3.7h-7.5ZM328.3,65.9h3.9v-5.7c.1-.3.1-.7.1-1s0-.8,0-1.1c0-.4,0-.8,0-1.1v-1h-.3c-.2.4-.3.9-.5,1.4-.2.5-.4,1-.6,1.5-.2.5-.4,1-.5,1.4l-2.1,5.8Z"/>
    <path d="M344.3,75.3l3.5-19.5h-6.2l1.1-6.1h19.5l-1.1,6.1h-6l-3.5,19.5h-7.3Z"/>
    <path d="M360.3,75.3l4.5-25.7h7.3l-4.6,25.7h-7.3Z"/>
    <path d="M381.9,75.8c-2,0-3.7-.3-5.1-1-1.4-.7-2.4-1.7-3.1-3-.7-1.3-1-2.9-1-4.9s0-1.4.1-2.2c0-.8.2-1.6.3-2.4.5-3,1.3-5.5,2.4-7.4,1.1-1.9,2.5-3.3,4.2-4.3,1.7-.9,3.8-1.4,6.2-1.4s3.8.3,5.1,1c1.4.7,2.4,1.7,3.1,3,.7,1.3,1,3,1,4.9s0,1.4-.1,2.1c0,.8-.2,1.6-.3,2.4-.5,3-1.3,5.5-2.4,7.4-1.1,1.9-2.5,3.3-4.2,4.3-1.7.9-3.7,1.4-6.1,1.4ZM382.5,69.8c.6,0,1.2-.1,1.7-.4.5-.2.9-.6,1.2-1,.3-.5.6-1,.9-1.6.2-.6.4-1.3.5-2.1.2-1.3.4-2.3.6-3.1.1-.8.2-1.4.3-1.9,0-.4.1-.8.1-1s0-.4,0-.6c0-.6,0-1.1-.3-1.5-.2-.4-.5-.8-.9-1-.4-.2-.9-.3-1.5-.3s-1.2.1-1.7.4c-.5.2-.9.6-1.2,1-.3.5-.6,1-.8,1.6-.2.6-.4,1.3-.6,2.1-.2,1.3-.4,2.3-.5,3.2-.1.8-.2,1.4-.3,1.9,0,.4-.1.8-.1,1,0,.2,0,.4,0,.6,0,.6,0,1.1.3,1.5.2.4.5.8.9,1,.4.2.9.3,1.5.3Z"/>
    <path d="M395.7,75.3l4.5-25.7h6.6l2.8,8.4c.1.3.2.7.4,1.1s.2.8.4,1.2c.1.4.2.8.3,1.2h.2c0-.6.2-1.3.3-2,.1-.7.2-1.4.3-1.9l1.4-8.1h6.8l-4.5,25.7h-6.6l-3-8.8c0-.5-.2-1-.4-1.6-.2-.6-.3-1.2-.4-1.7h-.2c0,.5-.1,1.1-.2,1.8,0,.6-.2,1.2-.3,1.7l-1.5,8.7h-6.8Z"/>
    <path d="M428,75.8c-1.3,0-2.4,0-3.5-.3-1.1-.2-2-.5-2.8-.9-.8-.4-1.4-1.1-1.9-1.9-.5-.8-.7-1.9-.7-3.2s0-.8,0-1.2c0-.4.1-.9.3-1.4h6.9c-.1.5-.2.8-.2,1,0,.2,0,.4,0,.6,0,.4,0,.7.3,1s.4.4.7.4c.3,0,.6.1,1,.1s.5,0,.8-.1c.3,0,.5-.2.8-.4.2-.2.4-.4.6-.7.1-.3.2-.6.2-1s-.1-.7-.4-1c-.2-.3-.6-.5-1-.7-.4-.2-.9-.4-1.4-.6-.5-.2-1.1-.4-1.6-.6-.6-.2-1.2-.5-1.8-.8-.6-.3-1.1-.7-1.6-1.2-.5-.5-.9-1-1.1-1.7-.3-.7-.4-1.5-.4-2.4,0-1.8.3-3.3.9-4.5.6-1.2,1.4-2.2,2.4-2.9,1-.7,2.1-1.3,3.3-1.6s2.4-.5,3.6-.5,2.2.1,3.2.3c1,.2,1.8.6,2.6,1,.7.5,1.3,1.1,1.7,1.8.4.8.6,1.7.6,2.8s0,.5,0,.8-.1.8-.3,1.5h-6.9c0-.3.1-.6.1-.8,0-.2,0-.3,0-.4,0-.4-.1-.7-.3-.9-.2-.2-.6-.3-1.2-.3s-.8,0-1.2.3c-.3.2-.6.4-.7.7-.1.3-.2.6-.2,1s0,.7.3,1c.2.3.5.5.8.8.3.2.7.4,1.2.6s.9.4,1.4.6c.6.2,1.3.5,1.9.8.6.3,1.2.7,1.8,1.1s1,1,1.3,1.7c.3.7.5,1.5.5,2.4,0,1.5-.2,2.9-.7,4.1-.5,1.2-1.2,2.2-2.1,3.1-.9.8-2,1.5-3.2,2-1.3.5-2.6.7-4.1.7Z"/>
    <g>
      <path d="M203.1,112c-1.3,0-2.4,0-3.5-.3-1.1-.2-2-.5-2.8-.9-.8-.4-1.4-1.1-1.9-1.9-.5-.8-.7-1.9-.7-3.2s0-.8,0-1.2c0-.4.1-.9.3-1.4h6.9c-.1.5-.2.8-.2,1,0,.2,0,.4,0,.6,0,.4,0,.7.3,1,.2.2.4.4.7.4.3,0,.6.1,1,.1s.5,0,.8-.1c.3,0,.5-.2.8-.4s.4-.4.6-.7c.1-.3.2-.6.2-1s-.1-.7-.4-1c-.2-.3-.6-.5-1-.7-.4-.2-.9-.4-1.4-.6-.5-.2-1.1-.4-1.6-.6-.6-.2-1.2-.5-1.8-.8-.6-.3-1.1-.7-1.6-1.2-.5-.5-.9-1-1.1-1.7-.3-.7-.4-1.5-.4-2.4,0-1.8.3-3.3.9-4.5.6-1.2,1.4-2.2,2.4-2.9,1-.7,2.1-1.3,3.3-1.6,1.2-.3,2.4-.5,3.6-.5s2.2.1,3.2.3c1,.2,1.8.6,2.6,1,.7.5,1.3,1.1,1.7,1.8.4.8.6,1.7.6,2.8s0,.5,0,.8c0,.3-.1.8-.3,1.5h-6.9c0-.3.1-.6.1-.8,0-.2,0-.3,0-.4,0-.4-.1-.7-.3-.9s-.6-.3-1.2-.3-.8,0-1.2.3c-.3.2-.6.4-.7.7-.1.3-.2.6-.2,1s0,.7.3,1,.5.5.8.8c.3.2.7.4,1.2.6s.9.4,1.4.6c.6.2,1.3.5,1.9.8.6.3,1.2.7,1.8,1.1s1,1,1.3,1.7c.3.7.5,1.5.5,2.4,0,1.5-.2,2.9-.7,4.1-.5,1.2-1.2,2.2-2.1,3.1-.9.8-2,1.5-3.2,2-1.3.5-2.6.7-4.1.7Z"/>
      <path d="M225.3,112c-2,0-3.7-.3-5.1-1-1.4-.7-2.4-1.7-3.1-3-.7-1.3-1-2.9-1-4.9s0-1.4.1-2.2c0-.8.2-1.6.3-2.4.5-3,1.3-5.5,2.4-7.4,1.1-1.9,2.5-3.3,4.2-4.3,1.7-.9,3.8-1.4,6.2-1.4s3.7.3,5.1,1,2.4,1.7,3.1,3c.7,1.3,1,3,1,4.9s0,1.4-.1,2.1c0,.8-.2,1.6-.3,2.4-.5,3-1.3,5.5-2.4,7.4-1.1,1.9-2.5,3.3-4.2,4.3-1.7.9-3.8,1.4-6.1,1.4ZM225.9,106c.6,0,1.2-.1,1.7-.4s.9-.6,1.2-1c.3-.5.6-1,.9-1.6.2-.6.4-1.3.5-2.1.2-1.3.4-2.3.6-3.1.1-.8.2-1.4.3-1.9s.1-.8.2-1c0-.2,0-.4,0-.6,0-.6,0-1.1-.3-1.5s-.5-.8-.9-1c-.4-.2-.9-.3-1.5-.3s-1.2.1-1.7.4c-.5.2-.9.6-1.2,1-.3.5-.6,1-.8,1.6s-.4,1.3-.6,2.1c-.2,1.3-.4,2.3-.5,3.2-.1.8-.2,1.4-.3,1.9,0,.4-.1.8-.1,1,0,.2,0,.4,0,.6,0,.6,0,1.1.3,1.5.2.4.5.8.9,1,.4.2.9.3,1.5.3Z"/>
      <path d="M249.1,112c-3,0-5.3-.7-6.8-2.2-1.5-1.4-2.2-3.6-2.2-6.5s0-1.4.1-2.2c0-.8.2-1.6.3-2.5.6-3.1,1.4-5.7,2.5-7.6,1.1-1.9,2.4-3.3,4.1-4.2,1.7-.9,3.6-1.3,5.8-1.3s3.2.3,4.5.8c1.2.5,2.2,1.3,2.9,2.4.7,1.1,1,2.5,1,4.3s0,1.1,0,1.7c0,.6-.1,1.2-.3,1.9h-7c0-.5.2-1,.2-1.5s0-.8,0-1.2c0-.5,0-.9-.2-1.3-.1-.3-.4-.6-.7-.8s-.7-.3-1.2-.3-1.1.1-1.5.3c-.4.2-.8.6-1.1,1-.3.4-.5,1-.7,1.6-.2.6-.4,1.4-.5,2.2-.2,1.3-.4,2.4-.6,3.3-.1.8-.2,1.5-.3,1.9s-.1.8-.2,1.1c0,.2,0,.5,0,.6,0,.5,0,1,.2,1.4s.4.7.7.9c.3.2.8.3,1.3.3s1.3-.2,1.8-.6c.5-.4.9-.9,1.2-1.7.3-.7.6-1.6.7-2.7h6.8c-.4,2.5-1.1,4.6-2.1,6.2-1,1.6-2.2,2.8-3.7,3.5-1.5.8-3.3,1.1-5.3,1.1Z"/>
      <path d="M261.6,111.5l4.5-25.7h7.3l-4.5,25.7h-7.3Z"/>
      <path d="M272.7,111.5l4.5-25.7h17.3l-1,6h-10l-.6,3.7h8.4l-1,5.9h-8.4l-.7,4.1h10.2l-1.1,6h-17.5Z"/>
      <path d="M298.1,111.5l3.5-19.5h-6.2l1.1-6.1h19.5l-1.1,6.1h-6l-3.5,19.5h-7.3Z"/>
      <path d="M319,111.5l1.7-9.8-4.7-15.8h7.7l1.8,8.6h.2l4.8-8.6h7.6l-10.2,15.8-1.7,9.8h-7.3Z"/>
    </g>
  </g>
  <path class="st0" d="M23,32.6c-1.7,0-2.9,0-4.6,0h-.1c.2-1.4,3.7-15.6,4.3-19.4l.2-.2h.7c1.4,0,2.5,0,3.9,0v.2c-.8,3.6-2.9,12.2-4.2,19.3h-.2Z"/>
  <path class="st0" d="M36.7,32.6h-.4c-1.4,0-8.4,0-9.8.1v-.2c.4-2,.7-3.5,1.2-5.5l1.1-4.5c.7-3.1,1.7-8.2,1.9-9.3h.2c0-.1,6.6-.1,6.6-.1,1.2,0,2.3,0,3.5,0v.2c-.2,1-.4,1.9-.7,3.1h-.2c0,.1-.2.1-.2.1-.6,0-1.3,0-2,0h-3.3l-1.1,4.6c3,0,4.9,0,5.3-.1v.2c-.2,1.1-.4,1.9-.7,3l-.2.2c-.4,0-1.7,0-2.8,0h-2.3c-.7,2.8-.8,3.6-1.2,5h2.8c1.1,0,2.6-.1,3.2-.1h.1c-.4,1.3-.6,2.2-.9,3.4h-.2Z"/>
  <path class="st0" d="M49.9,32.6h-.4c-1.4,0-8.4,0-9.8.1v-.2c.4-2,.7-3.5,1.2-5.5l1.1-4.5c.7-3.1,1.7-8.2,1.9-9.3h.2c0-.1,6.6-.1,6.6-.1,1.2,0,2.3,0,3.5,0v.2c-.2,1-.4,1.9-.7,3.1h-.2c0,.1-.2.1-.2.1-.6,0-1.3,0-2,0h-3.3l-1.1,4.6c3,0,4.9,0,5.3-.1v.2c-.2,1.1-.4,1.9-.7,3l-.2.2c-.4,0-1.7,0-2.8,0h-2.3c-.7,2.8-.8,3.6-1.2,5h2.8c1.1,0,2.6-.1,3.2-.1h.1c-.4,1.3-.6,2.2-.9,3.4h-.2Z"/>
  <path class="st0" d="M63.2,32.6h-.4c-1.4,0-8.4,0-9.8.1v-.2c.4-2,.7-3.5,1.2-5.5l1.1-4.5c.7-3.1,1.7-8.2,1.9-9.3h.2c0-.1,6.6-.1,6.6-.1,1.2,0,2.3,0,3.5,0v.2c-.2,1-.4,1.9-.7,3.1h-.2c0,.1-.2.1-.2.1-.6,0-1.3,0-2,0h-3.3l-1.1,4.6c3,0,4.9,0,5.3-.1v.2c-.2,1.1-.4,1.9-.7,3l-.2.2c-.4,0-1.7,0-2.8,0h-2.3c-.7,2.8-.8,3.6-1.2,5h2.8c1.1,0,2.6-.1,3.2-.1h.1c-.4,1.3-.6,2.2-.9,3.4h-.2Z"/>
  <path class="st0" d="M15.7,41.7s0-1.1.4-1.2h11.6c2.3,0,2.7.4,2,3.6-.6,3.2-6.3,29-6.3,29,0,1.1,1.4,1.6,1.5,1.9,0,.2.3,1.1-.6,1.1h-11.8c-1.6,0-2.1-1-1.9-2.7,0,0,6.6-29,6.6-29.8s-1-1.1-1.1-1.5l-.2-.3Z"/>
  <path class="st0" d="M27.6,75.9c-1.8,0-1.5-1.3-1.2-1.9.3-.6,15.4-30.1,15.4-30.7s-.4-.9-.7-1.3c-.3-.4-.7-1.5,0-1.6h14.3c2.3,0,2.9.5,2.8,4.1,0,0,1.9,27.4,1.9,28.4s1.1,1.1,1.5,1.5c.3.5.4,1.2-.2,1.5h-10.2c-2.4,0-2.3-1.1-2.4-1.9,0-.7-.3-5.1-.3-5.1,0-.6-.8-.4-.8-.4h-7.6c-.5.2-.6.7-.9,1.4-.3.6-1.7,3.2-1.5,3.8.2.6.6.6.8,1.1.2.5.2.4-.2,1h-10.6ZM47.9,50.7l-5.4,10.8h6.1l-.7-10.8Z"/>
  <path class="st0" d="M64.7,76c-1.7-.2-1.9-1.7-1.9-2.6s1.4-6.7,1.6-7.1,1.1-.5,1.4,0c.2.5.1.3.2.5.6,1,5.5.9,9.5.6,2.4-.1,3.7-3,1.2-4.7,0,0-7.3-4.4-8.3-5.2-.9-.7-1.8-2.1-1.3-4.1s2.4-8.2,3-9.6c.7-1.7,2.5-3.2,5.2-3.3h16.9c.9,0-.7,5.9-1.5,6.7-.9,1.1-1.3,1.1-2.7,1.1-4.1,0-7.1-.9-7.9,1.1-.5,1.3,1.1,2.3,1.5,2.6.8.6,5.2,3.6,5.9,4.1.8.6,3.5,1.7,2.5,7.8-.5,3-1,12.2-10.3,12.2h-15.1Z"/>
  <g>
    <path class="st0" d="M199.2,64.3h-9.1c-1.9-1.2-1.9-1.3-2.3-3.4-.6-2.4-1.9-11.5-3.2-15.1-1.3-3.6-7.9-3.5-9,1.2-.4,1.8-2,8.9-3.8,17.3h-18.6c-3.5-18.6-7.4-35.4-8.4-39.7-2.6-11.4-18.9-11.3-20.8.3,0,0-5.8,26.1-7.5,28.7-1.7,2.5-1.5,2.9-5.3,3.2h-14c0,.1-4.5,19.3-4.5,19.3h17.5c8-.7,9.1-5.4,9.7-8.3l.4-1.5h18.4c3.6,18.6,7.3,34,7.3,34,3.5,12.3,20.5,12,23.8-4.2,0,0,4.2-15.5,7.4-29.8h21.4l.7-2ZM120.7,64.3l8-30.8c.7-3.5,2.7-2.2,2.9,0,0,.7,3.2,13.6,6.6,30.8h-17.6ZM164,94.6c-1,2.3-4,1.8-4.7-1.1,0,0-2.7-10.9-5.8-27.2h17.8c-3,13.9-6.6,26.8-7.3,28.3ZM180.8,50.8c.4-.8,1.2-1,1.5.2.3.9,2.5,12,2.5,12,0,0,0,.5.5,1.2h-7.6c1.7-7.4,3-13.1,3.2-13.5Z"/>
    <g>
      <path class="st0" d="M180.5,71.5v-3h-1.1v-.6h2.9v.6h-1.1v3h-.7Z"/>
      <path class="st0" d="M182.8,71.5v-3.6h1.1l.7,2.5.7-2.5h1.1v3.6h-.7v-2.9l-.7,2.9h-.7l-.7-2.9v2.9h-.7Z"/>
    </g>
  </g>
</svg>